<?xml version="1.0" encoding="UTF-8" standalone="no"?>
<svg width="32px" height="37px" viewBox="0 0 32 37" version="1.1" xmlns="http://www.w3.org/2000/svg" xmlns:xlink="http://www.w3.org/1999/xlink" xmlns:sketch="http://www.bohemiancoding.com/sketch/ns">
    <!-- Generator: Sketch 3.0.4 (8054) - http://www.bohemiancoding.com/sketch -->
    <title>Trailblazer Logo 2</title>
    <desc>Created with Sketch.</desc>
    <defs></defs>
    <g id="Page-2" stroke="none" stroke-width="1" fill="none" fill-rule="evenodd" sketch:type="MSPage">
        <g id="Test" sketch:type="MSLayerGroup" transform="translate(-52.000000, -48.000000)" fill="#000000" opacity="0.101270989">
            <path d="M66.774378,48.3002956 C67.4512703,47.8999872 68.5484397,47.8998157 69.225622,48.3002956 L82.774378,56.3129142 C83.4512703,56.7132226 84,57.6864217 84,58.4873814 L84,74.5126186 C84,75.3132353 83.4515603,76.2866059 82.774378,76.6870858 L69.225622,84.6997044 C68.5487297,85.1000128 67.4515603,85.1001843 66.774378,84.6997044 L53.225622,76.6870858 C52.5487297,76.2867774 52,75.3135783 52,74.5126186 L52,58.4873814 C52,57.6867647 52.5484397,56.7133941 53.225622,56.3129142 L66.774378,48.3002956 L66.774378,48.3002956 Z M66.877945,64.9230867 C66.7187508,65.0397005 66.4985702,65.2663939 66.385867,65.4298419 L59.7789742,75.0115097 L69.0540175,68.1684213 C69.2127932,68.0512773 69.4335551,67.8241541 69.5464625,67.6620473 L76.2210258,58.0790383 L66.877945,64.9230867 L66.877945,64.9230867 Z" id="Trailblazer-Logo-2" sketch:type="MSShapeGroup"></path>
        </g>
    </g>
</svg>