<?xml version="1.0" encoding="UTF-8" standalone="no"?>
<svg width="16px" height="16px" viewBox="0 0 16 16" version="1.1" xmlns="http://www.w3.org/2000/svg" xmlns:xlink="http://www.w3.org/1999/xlink">
  <defs></defs>
  <g stroke="none" stroke-width="1" fill="none" fill-rule="evenodd">
    <path fill="#444" d="M8,16 C12.418278,16 16,12.418278 16,8 C16,3.581722 12.418278,0 8,0 C3.581722,0 0,3.581722 0,8 C0,12.418278 3.581722,16 8,16 Z M7.40362088,7.79955033 L7.60238037,9.40950225 L8.40735633,9.40950225 L8.50673608,8.60452629 C9.60985129,8.41570477 10.504269,7.8492402 10.504269,6.5871174 C10.504269,5.33493257 9.57009939,4.55977053 8.17878291,4.55977053 C7.10548163,4.55977053 6.36013352,5.0069794 5.78373098,5.66288574 L6.52907909,6.45792372 C7.00610188,5.95108701 7.52287657,5.67282371 8.14896899,5.67282371 C8.86450318,5.67282371 9.29183609,6.06040473 9.29183609,6.6268693 C9.29183609,7.29271361 8.71543355,7.70017058 7.45331075,7.74986045 L7.40362088,7.79955033 Z M8.64586773,11.6057947 L8.64586773,10.2442921 L7.3141791,10.2442921 L7.3141791,11.6057947 L8.64586773,11.6057947 Z"></path>
  </g>
</svg>
